<svg width="112" height="112" viewBox="0 0 112 112" fill="none" xmlns="http://www.w3.org/2000/svg">
<g clip-path="url(#clip0_292_14)">
<circle cx="56" cy="56" r="56" fill="#2B343D"/>
<path d="M84.2969 71.3281C84.4219 71.5469 84.4844 71.7344 84.4844 71.8906C84.4844 72.0781 84.4062 72.25 84.25 72.4062C84.125 72.5625 83.9375 72.7344 83.6875 72.9219C83.4688 73.0781 83.2188 73.25 82.9375 73.4375C82.6875 73.625 82.4375 73.8594 82.1875 74.1406C82.0312 74.2969 81.9688 74.4688 82 74.6562C82.0312 74.8438 81.9844 75.0312 81.8594 75.2188C81.6406 75.5 81.3594 75.8125 81.0156 76.1562C80.6719 76.5 80.2969 76.8594 79.8906 77.2344C79.4844 77.6094 79.0625 77.9844 78.625 78.3594C78.2188 78.7344 77.8594 79.0781 77.5469 79.3906C77.2344 79.6719 76.9688 79.9062 76.75 80.0938C76.5625 80.3125 76.4844 80.4375 76.5156 80.4688C76.4531 80.4688 76.375 80.4531 76.2812 80.4219C76.1875 80.4219 76.1094 80.4219 76.0469 80.4219C75.9219 80.4219 75.7656 80.4844 75.5781 80.6094C75.3906 80.7656 75.1719 80.8438 74.9219 80.8438C74.5156 80.8438 74.0625 80.7344 73.5625 80.5156C73.0625 80.3281 72.5469 80.0625 72.0156 79.7188C71.8594 79.625 71.7031 79.4688 71.5469 79.25C71.3906 79.0312 71.2031 78.8438 70.9844 78.6875C70.7344 78.5312 70.4688 78.4062 70.1875 78.3125C69.9375 78.2188 69.7344 78.125 69.5781 78.0312C69.1719 77.6562 68.7656 77.2031 68.3594 76.6719C67.9844 76.1406 67.5781 75.6562 67.1406 75.2188C66.2656 74.375 65.4062 73.5312 64.5625 72.6875C63.7188 71.8125 62.8281 70.9062 61.8906 69.9688C61.4219 69.5312 60.9219 69.125 60.3906 68.75C59.8906 68.375 59.4531 67.9688 59.0781 67.5312C58.9531 67.375 58.8906 67.2031 58.8906 67.0156C58.8906 66.7969 58.8438 66.6094 58.75 66.4531C58.2812 65.8281 57.7188 65.2188 57.0625 64.625C56.4375 64 55.9531 63.4375 55.6094 62.9375C55.4219 62.6875 55.2812 62.4062 55.1875 62.0938C55.125 61.75 55.0312 61.4531 54.9062 61.2031C54.7188 60.9531 54.4688 60.7344 54.1562 60.5469C53.875 60.3281 53.6562 60.0781 53.5 59.7969C53.3438 59.5469 53.2188 59.2656 53.125 58.9531C53.0625 58.6094 52.9531 58.3125 52.7969 58.0625C52.6406 57.8125 52.4062 57.6562 52.0938 57.5938C51.8125 57.5 51.5781 57.3125 51.3906 57.0312C51.2656 56.8438 51.1875 56.6719 51.1562 56.5156C51.125 56.3594 51.0938 56.2188 51.0625 56.0938C51.0312 55.9375 50.9844 55.7969 50.9219 55.6719C50.8906 55.5469 50.8125 55.4062 50.6875 55.25C50.25 55.875 49.9844 56.5 49.8906 57.125C49.7969 57.75 49.75 58.4062 49.75 59.0938V60.1719C49.75 60.7656 49.7031 61.3281 49.6094 61.8594C49.5156 62.3594 49.4062 62.8594 49.2812 63.3594C49.1562 63.8594 49.0312 64.3594 48.9062 64.8594C48.7812 65.3594 48.6719 65.8906 48.5781 66.4531C48.4219 67.4531 48.3594 68.5 48.3906 69.5938C48.4531 70.6562 48.4062 71.7188 48.25 72.7812C48.1562 72.875 48.0625 73.0781 47.9688 73.3906C47.875 73.7031 47.7812 74.0781 47.6875 74.5156C47.625 74.9219 47.5781 75.375 47.5469 75.875C47.5156 76.375 47.5 76.875 47.5 77.375C47.5 77.5312 47.5 77.7031 47.5 77.8906C47.5 78.0469 47.5156 78.2031 47.5469 78.3594C47.5781 78.2656 47.7031 78.2188 47.9219 78.2188C48.2344 78.2188 48.625 78.2812 49.0938 78.4062C49.5625 78.5 49.9844 78.5469 50.3594 78.5469C50.7031 78.5469 50.9219 78.4844 51.0156 78.3594C51.1406 78.2344 51.4062 78.1719 51.8125 78.1719C52.1562 78.1719 52.4688 78.2344 52.75 78.3594C53.0312 78.4844 53.1719 78.7188 53.1719 79.0625C53.1719 79.5 53.0781 79.7812 52.8906 79.9062C52.7031 80.0312 52.5312 80.0938 52.375 80.0938C52.2812 80.0938 52.1562 80.0781 52 80.0469C51.875 80.0469 51.7344 80.0469 51.5781 80.0469C51.2344 80.0469 51.0156 80.125 50.9219 80.2812C50.8281 80.4375 50.6562 80.5156 50.4062 80.5156C50.25 80.5156 50.0625 80.5 49.8438 80.4688C49.6562 80.4375 49.4375 80.4219 49.1875 80.4219C49.0938 80.4219 48.8438 80.4531 48.4375 80.5156C48.0312 80.6094 47.5469 80.7031 46.9844 80.7969C46.4219 80.9219 45.8125 81.0469 45.1562 81.1719C44.5312 81.2969 43.9219 81.4062 43.3281 81.5C43.2656 81.5312 43.1875 81.5469 43.0938 81.5469C43 81.5469 42.8906 81.5312 42.7656 81.5C42.6719 81.5 42.5781 81.5 42.4844 81.5H42.2969C42.2031 81.5312 41.9219 81.5938 41.4531 81.6875C40.9844 81.8125 40.4375 81.9219 39.8125 82.0156C39.2188 82.1406 38.5938 82.25 37.9375 82.3438C37.2812 82.4375 36.7031 82.4844 36.2031 82.4844C35.5469 82.4844 35.125 82.3906 34.9375 82.2031C34.75 82.0156 34.6562 81.8125 34.6562 81.5938C34.6562 81.4062 34.7344 81.1719 34.8906 80.8906C35.0469 80.6406 35.2656 80.4062 35.5469 80.1875C35.8281 79.9688 36.1562 79.7812 36.5312 79.625C36.9375 79.4688 37.375 79.3906 37.8438 79.3906C38 79.3906 38.1875 79.4062 38.4062 79.4375C38.6562 79.4688 38.875 79.4844 39.0625 79.4844C39.3125 79.4844 39.5625 79.1094 39.8125 78.3594C40.0625 77.6094 40.2969 76.625 40.5156 75.4062C40.7656 74.1875 41.0156 72.8125 41.2656 71.2812C41.5156 69.7188 41.75 68.125 41.9688 66.5C42.2188 64.875 42.4531 63.2969 42.6719 61.7656C42.8906 60.2344 43.1094 58.875 43.3281 57.6875V57.5469C43.3281 57.4531 43.3125 57.3594 43.2812 57.2656C43.2812 57.1406 43.2812 57.0312 43.2812 56.9375C43.2812 56.4375 43.4219 55.8906 43.7031 55.2969C43.9844 54.6719 44.2188 53.9531 44.4062 53.1406C44.5 52.4531 44.5469 51.7656 44.5469 51.0781C44.5781 50.3594 44.6406 49.6562 44.7344 48.9688C45.0469 46.5625 45.3906 43.9375 45.7656 41.0938C46.1719 38.2188 46.5312 34.8906 46.8438 31.1094C46.625 30.9844 46.4062 30.9219 46.1875 30.9219C45.75 30.9219 45.2969 31.0781 44.8281 31.3906C44.3906 31.7031 43.9531 31.8594 43.5156 31.8594C43.2656 31.8594 43 31.75 42.7188 31.5312C42.4375 31.3125 42.2969 30.9062 42.2969 30.3125C42.2969 29.9375 42.3594 29.5625 42.4844 29.1875C42.6094 28.7812 42.7812 28.4844 43 28.2969C43.0938 28.2031 43.5312 28.1406 44.3125 28.1094C45.0938 28.0781 46 28.0469 47.0312 28.0156C48.0625 27.9844 49.1094 27.9375 50.1719 27.875C51.2344 27.8125 52.1094 27.7188 52.7969 27.5938C53.4219 27.4688 54.0781 27.3438 54.7656 27.2188C55.4844 27.0625 56.3438 26.9531 57.3438 26.8906C57.4375 26.8906 57.6094 26.8438 57.8594 26.75C58.1094 26.625 58.2656 26.5625 58.3281 26.5625C58.5781 26.5625 58.7812 26.625 58.9375 26.75C59.0938 26.875 59.2188 27.0312 59.3125 27.2188C59.4062 27.375 59.4688 27.5312 59.5 27.6875C59.5625 27.8438 59.5938 27.9531 59.5938 28.0156C59.5938 28.2031 59.5312 28.3281 59.4062 28.3906C59.2812 28.4219 59.1406 28.4375 58.9844 28.4375H58.5156C58.3594 28.4375 58.1719 28.4531 57.9531 28.4844C57.7656 28.5156 57.6719 28.6094 57.6719 28.7656V28.9062C57.6719 28.9375 57.6875 28.9688 57.7188 29C57.5625 29.0625 57.2812 29.0938 56.875 29.0938H55.7031C55.4531 29.0938 55.2188 29.1094 55 29.1406C54.8125 29.1719 54.6562 29.2344 54.5312 29.3281C54.3125 29.5469 54.0938 30.0469 53.875 30.8281C53.6875 31.6094 53.5 32.5 53.3125 33.5C53.1562 34.4688 53.0312 35.4375 52.9375 36.4062C52.8438 37.375 52.7969 38.1406 52.7969 38.7031V39.3125C52.7969 39.4688 52.7656 39.7031 52.7031 40.0156C52.6406 40.2969 52.5625 40.5938 52.4688 40.9062C52.2188 41.6875 52.0156 42.6406 51.8594 43.7656C51.7344 44.8906 51.6094 46.0625 51.4844 47.2812C51.3594 48.5 51.2031 49.6875 51.0156 50.8438C50.8594 52 50.6406 53 50.3594 53.8438C50.3906 53.9375 50.4531 53.9844 50.5469 53.9844C50.6719 53.9844 50.8438 53.9062 51.0625 53.75C51.3125 53.5625 51.5625 53.3438 51.8125 53.0938C52.0625 52.8438 52.2969 52.6094 52.5156 52.3906C52.7656 52.1406 52.9688 51.9375 53.125 51.7812C53.625 51.3125 54.0938 50.8438 54.5312 50.375C55 49.875 55.4688 49.4062 55.9375 48.9688C56.4688 48.5 57 48.0938 57.5312 47.75C58.0938 47.4062 58.6094 47 59.0781 46.5312C59.8906 45.6875 60.6875 44.6719 61.4688 43.4844C62.2812 42.2969 63.125 41.2031 64 40.2031C64.4375 39.7031 64.9062 39.25 65.4062 38.8438C65.9062 38.4062 66.3594 37.9219 66.7656 37.3906C66.9219 37.2344 66.9844 37.0625 66.9531 36.875C66.9531 36.6562 67.0156 36.4844 67.1406 36.3594C67.4219 36.0156 67.75 35.6406 68.125 35.2344C68.5312 34.8281 68.9219 34.4062 69.2969 33.9688C69.7031 33.5 70.0625 33.0156 70.375 32.5156C70.6875 31.9844 70.8906 31.4062 70.9844 30.7812C70.8281 30.5938 70.6406 30.5 70.4219 30.5C70.0469 30.5 69.625 30.6719 69.1562 31.0156C68.7188 31.3594 68.2344 31.5312 67.7031 31.5312C67.4531 31.5312 67.1719 31.4062 66.8594 31.1562C66.5469 30.9062 66.3906 30.5469 66.3906 30.0781C66.3906 29.6094 66.5625 29.2656 66.9062 29.0469C67.2812 28.7969 67.7656 28.625 68.3594 28.5312C68.9531 28.4062 69.625 28.3125 70.375 28.25C71.125 28.1875 71.9062 28.0938 72.7188 27.9688C73.25 27.875 73.7031 27.7344 74.0781 27.5469C74.4844 27.3281 75 27.2188 75.625 27.2188C76 27.2188 76.375 27.2344 76.75 27.2656C77.1562 27.2656 77.5469 27.2656 77.9219 27.2656C78.6094 27.2656 79.3438 27.2188 80.125 27.125C80.9062 27 81.6094 26.9375 82.2344 26.9375C82.7969 26.9375 83.2656 27.0312 83.6406 27.2188C84.0156 27.4062 84.2344 27.7656 84.2969 28.2969C83.7656 28.5469 83.2188 28.7188 82.6562 28.8125C82.125 28.875 81.6094 28.9688 81.1094 29.0938C80.6094 29.1875 80.1562 29.3594 79.75 29.6094C79.3438 29.8281 79 30.2188 78.7188 30.7812C78.1562 31.5 77.5312 32.3125 76.8438 33.2188C76.1875 34.125 75.4062 34.9375 74.5 35.6562C74.2812 35.8125 74.0312 35.9375 73.75 36.0312C73.5 36.0938 73.2812 36.2031 73.0938 36.3594C72.9062 36.5156 72.7812 36.7344 72.7188 37.0156C72.6562 37.2969 72.5469 37.5312 72.3906 37.7188C71.9531 38.25 71.4062 38.8438 70.75 39.5C70.125 40.125 69.4375 40.7812 68.6875 41.4688C67.9688 42.1562 67.2188 42.8594 66.4375 43.5781C65.6875 44.2969 64.9844 45.0312 64.3281 45.7812C64.0469 46.0938 63.8125 46.4062 63.625 46.7188C63.4375 47.0312 63.2188 47.3125 62.9688 47.5625C62.8125 47.6875 62.625 47.75 62.4062 47.75C62.2188 47.7188 62.0469 47.7656 61.8906 47.8906C61.7969 47.9531 61.7344 48.0781 61.7031 48.2656C61.6719 48.4219 61.6094 48.5312 61.5156 48.5938C61.3906 48.6875 61.2188 48.75 61 48.7812C60.8125 48.7812 60.6406 48.8438 60.4844 48.9688C60.4844 48.9688 60.3125 49.125 59.9688 49.4375C59.6562 49.75 59.2969 50.0938 58.8906 50.4688C58.5156 50.8125 58.1562 51.1406 57.8125 51.4531C57.5 51.7344 57.3438 51.8594 57.3438 51.8281C57.3438 51.8906 57.375 52.0312 57.4375 52.25C57.5312 52.4688 57.6406 52.7188 57.7656 53C57.9219 53.25 58.0781 53.5312 58.2344 53.8438C58.4219 54.125 58.5938 54.3594 58.75 54.5469C58.8438 54.7031 59 54.875 59.2188 55.0625C59.4688 55.2188 59.7031 55.3906 59.9219 55.5781C60.1719 55.7344 60.3906 55.8906 60.5781 56.0469C60.7656 56.1719 60.8594 56.2656 60.8594 56.3281C60.8594 56.3906 60.8438 56.4844 60.8125 56.6094C60.8125 56.7031 60.8125 56.7812 60.8125 56.8438C60.8125 56.875 60.9219 57.0312 61.1406 57.3125C61.3594 57.5938 61.5938 57.9062 61.8438 58.25C62.125 58.5938 62.375 58.9219 62.5938 59.2344C62.8438 59.5156 62.9688 59.7031 62.9688 59.7969C62.9688 59.9531 63.0469 60.1094 63.2031 60.2656C63.3906 60.4219 63.5938 60.5938 63.8125 60.7812C64.0312 60.9375 64.2188 61.1094 64.375 61.2969C64.5625 61.4844 64.6562 61.6875 64.6562 61.9062C64.6562 62.1875 64.7969 62.4688 65.0781 62.75C65.3906 63.0312 65.7344 63.2969 66.1094 63.5469C66.4844 63.7969 66.8438 64.0312 67.1875 64.25C67.5312 64.4375 67.75 64.5938 67.8438 64.7188C67.9688 64.875 68.0469 65.0312 68.0781 65.1875C68.1094 65.3438 68.125 65.5 68.125 65.6562V66.1719C68.125 66.3281 68.1562 66.4375 68.2188 66.5C68.3125 66.5312 68.4219 66.5625 68.5469 66.5938C68.6719 66.625 68.7969 66.6562 68.9219 66.6875C69.0469 66.6875 69.1562 66.7188 69.25 66.7812C69.7812 67.2812 70.3906 67.9375 71.0781 68.75C71.7969 69.5312 72.5469 70.3125 73.3281 71.0938C74.1406 71.8438 74.9844 72.5 75.8594 73.0625C76.7656 73.625 77.6875 73.9062 78.625 73.9062C78.75 73.9062 78.9688 73.875 79.2812 73.8125C79.5938 73.7188 79.9062 73.6094 80.2188 73.4844C80.5625 73.3281 80.8594 73.1719 81.1094 73.0156C81.3594 72.8281 81.4844 72.625 81.4844 72.4062C81.4844 71.9688 81.5781 71.6406 81.7656 71.4219C81.9844 71.1719 82.5312 71.0469 83.4062 71.0469C83.875 71.0469 84.1719 71.1406 84.2969 71.3281Z" fill="#5C5C5C"/>
<path d="M80.2969 71.3281C80.4219 71.5469 80.4844 71.7344 80.4844 71.8906C80.4844 72.0781 80.4062 72.25 80.25 72.4062C80.125 72.5625 79.9375 72.7344 79.6875 72.9219C79.4688 73.0781 79.2188 73.25 78.9375 73.4375C78.6875 73.625 78.4375 73.8594 78.1875 74.1406C78.0312 74.2969 77.9688 74.4688 78 74.6562C78.0312 74.8438 77.9844 75.0312 77.8594 75.2188C77.6406 75.5 77.3594 75.8125 77.0156 76.1562C76.6719 76.5 76.2969 76.8594 75.8906 77.2344C75.4844 77.6094 75.0625 77.9844 74.625 78.3594C74.2188 78.7344 73.8594 79.0781 73.5469 79.3906C73.2344 79.6719 72.9688 79.9062 72.75 80.0938C72.5625 80.3125 72.4844 80.4375 72.5156 80.4688C72.4531 80.4688 72.375 80.4531 72.2812 80.4219C72.1875 80.4219 72.1094 80.4219 72.0469 80.4219C71.9219 80.4219 71.7656 80.4844 71.5781 80.6094C71.3906 80.7656 71.1719 80.8438 70.9219 80.8438C70.5156 80.8438 70.0625 80.7344 69.5625 80.5156C69.0625 80.3281 68.5469 80.0625 68.0156 79.7188C67.8594 79.625 67.7031 79.4688 67.5469 79.25C67.3906 79.0312 67.2031 78.8438 66.9844 78.6875C66.7344 78.5312 66.4688 78.4062 66.1875 78.3125C65.9375 78.2188 65.7344 78.125 65.5781 78.0312C65.1719 77.6562 64.7656 77.2031 64.3594 76.6719C63.9844 76.1406 63.5781 75.6562 63.1406 75.2188C62.2656 74.375 61.4062 73.5312 60.5625 72.6875C59.7188 71.8125 58.8281 70.9062 57.8906 69.9688C57.4219 69.5312 56.9219 69.125 56.3906 68.75C55.8906 68.375 55.4531 67.9688 55.0781 67.5312C54.9531 67.375 54.8906 67.2031 54.8906 67.0156C54.8906 66.7969 54.8438 66.6094 54.75 66.4531C54.2812 65.8281 53.7188 65.2188 53.0625 64.625C52.4375 64 51.9531 63.4375 51.6094 62.9375C51.4219 62.6875 51.2812 62.4062 51.1875 62.0938C51.125 61.75 51.0312 61.4531 50.9062 61.2031C50.7188 60.9531 50.4688 60.7344 50.1562 60.5469C49.875 60.3281 49.6562 60.0781 49.5 59.7969C49.3438 59.5469 49.2188 59.2656 49.125 58.9531C49.0625 58.6094 48.9531 58.3125 48.7969 58.0625C48.6406 57.8125 48.4062 57.6562 48.0938 57.5938C47.8125 57.5 47.5781 57.3125 47.3906 57.0312C47.2656 56.8438 47.1875 56.6719 47.1562 56.5156C47.125 56.3594 47.0938 56.2188 47.0625 56.0938C47.0312 55.9375 46.9844 55.7969 46.9219 55.6719C46.8906 55.5469 46.8125 55.4062 46.6875 55.25C46.25 55.875 45.9844 56.5 45.8906 57.125C45.7969 57.75 45.75 58.4062 45.75 59.0938V60.1719C45.75 60.7656 45.7031 61.3281 45.6094 61.8594C45.5156 62.3594 45.4062 62.8594 45.2812 63.3594C45.1562 63.8594 45.0312 64.3594 44.9062 64.8594C44.7812 65.3594 44.6719 65.8906 44.5781 66.4531C44.4219 67.4531 44.3594 68.5 44.3906 69.5938C44.4531 70.6562 44.4062 71.7188 44.25 72.7812C44.1562 72.875 44.0625 73.0781 43.9688 73.3906C43.875 73.7031 43.7812 74.0781 43.6875 74.5156C43.625 74.9219 43.5781 75.375 43.5469 75.875C43.5156 76.375 43.5 76.875 43.5 77.375C43.5 77.5312 43.5 77.7031 43.5 77.8906C43.5 78.0469 43.5156 78.2031 43.5469 78.3594C43.5781 78.2656 43.7031 78.2188 43.9219 78.2188C44.2344 78.2188 44.625 78.2812 45.0938 78.4062C45.5625 78.5 45.9844 78.5469 46.3594 78.5469C46.7031 78.5469 46.9219 78.4844 47.0156 78.3594C47.1406 78.2344 47.4062 78.1719 47.8125 78.1719C48.1562 78.1719 48.4688 78.2344 48.75 78.3594C49.0312 78.4844 49.1719 78.7188 49.1719 79.0625C49.1719 79.5 49.0781 79.7812 48.8906 79.9062C48.7031 80.0312 48.5312 80.0938 48.375 80.0938C48.2812 80.0938 48.1562 80.0781 48 80.0469C47.875 80.0469 47.7344 80.0469 47.5781 80.0469C47.2344 80.0469 47.0156 80.125 46.9219 80.2812C46.8281 80.4375 46.6562 80.5156 46.4062 80.5156C46.25 80.5156 46.0625 80.5 45.8438 80.4688C45.6562 80.4375 45.4375 80.4219 45.1875 80.4219C45.0938 80.4219 44.8438 80.4531 44.4375 80.5156C44.0312 80.6094 43.5469 80.7031 42.9844 80.7969C42.4219 80.9219 41.8125 81.0469 41.1562 81.1719C40.5312 81.2969 39.9219 81.4062 39.3281 81.5C39.2656 81.5312 39.1875 81.5469 39.0938 81.5469C39 81.5469 38.8906 81.5312 38.7656 81.5C38.6719 81.5 38.5781 81.5 38.4844 81.5H38.2969C38.2031 81.5312 37.9219 81.5938 37.4531 81.6875C36.9844 81.8125 36.4375 81.9219 35.8125 82.0156C35.2188 82.1406 34.5938 82.25 33.9375 82.3438C33.2812 82.4375 32.7031 82.4844 32.2031 82.4844C31.5469 82.4844 31.125 82.3906 30.9375 82.2031C30.75 82.0156 30.6562 81.8125 30.6562 81.5938C30.6562 81.4062 30.7344 81.1719 30.8906 80.8906C31.0469 80.6406 31.2656 80.4062 31.5469 80.1875C31.8281 79.9688 32.1562 79.7812 32.5312 79.625C32.9375 79.4688 33.375 79.3906 33.8438 79.3906C34 79.3906 34.1875 79.4062 34.4062 79.4375C34.6562 79.4688 34.875 79.4844 35.0625 79.4844C35.3125 79.4844 35.5625 79.1094 35.8125 78.3594C36.0625 77.6094 36.2969 76.625 36.5156 75.4062C36.7656 74.1875 37.0156 72.8125 37.2656 71.2812C37.5156 69.7188 37.75 68.125 37.9688 66.5C38.2188 64.875 38.4531 63.2969 38.6719 61.7656C38.8906 60.2344 39.1094 58.875 39.3281 57.6875V57.5469C39.3281 57.4531 39.3125 57.3594 39.2812 57.2656C39.2812 57.1406 39.2812 57.0312 39.2812 56.9375C39.2812 56.4375 39.4219 55.8906 39.7031 55.2969C39.9844 54.6719 40.2188 53.9531 40.4062 53.1406C40.5 52.4531 40.5469 51.7656 40.5469 51.0781C40.5781 50.3594 40.6406 49.6562 40.7344 48.9688C41.0469 46.5625 41.3906 43.9375 41.7656 41.0938C42.1719 38.2188 42.5312 34.8906 42.8438 31.1094C42.625 30.9844 42.4062 30.9219 42.1875 30.9219C41.75 30.9219 41.2969 31.0781 40.8281 31.3906C40.3906 31.7031 39.9531 31.8594 39.5156 31.8594C39.2656 31.8594 39 31.75 38.7188 31.5312C38.4375 31.3125 38.2969 30.9062 38.2969 30.3125C38.2969 29.9375 38.3594 29.5625 38.4844 29.1875C38.6094 28.7812 38.7812 28.4844 39 28.2969C39.0938 28.2031 39.5312 28.1406 40.3125 28.1094C41.0938 28.0781 42 28.0469 43.0312 28.0156C44.0625 27.9844 45.1094 27.9375 46.1719 27.875C47.2344 27.8125 48.1094 27.7188 48.7969 27.5938C49.4219 27.4688 50.0781 27.3438 50.7656 27.2188C51.4844 27.0625 52.3438 26.9531 53.3438 26.8906C53.4375 26.8906 53.6094 26.8438 53.8594 26.75C54.1094 26.625 54.2656 26.5625 54.3281 26.5625C54.5781 26.5625 54.7812 26.625 54.9375 26.75C55.0938 26.875 55.2188 27.0312 55.3125 27.2188C55.4062 27.375 55.4688 27.5312 55.5 27.6875C55.5625 27.8438 55.5938 27.9531 55.5938 28.0156C55.5938 28.2031 55.5312 28.3281 55.4062 28.3906C55.2812 28.4219 55.1406 28.4375 54.9844 28.4375H54.5156C54.3594 28.4375 54.1719 28.4531 53.9531 28.4844C53.7656 28.5156 53.6719 28.6094 53.6719 28.7656V28.9062C53.6719 28.9375 53.6875 28.9688 53.7188 29C53.5625 29.0625 53.2812 29.0938 52.875 29.0938H51.7031C51.4531 29.0938 51.2188 29.1094 51 29.1406C50.8125 29.1719 50.6562 29.2344 50.5312 29.3281C50.3125 29.5469 50.0938 30.0469 49.875 30.8281C49.6875 31.6094 49.5 32.5 49.3125 33.5C49.1562 34.4688 49.0312 35.4375 48.9375 36.4062C48.8438 37.375 48.7969 38.1406 48.7969 38.7031V39.3125C48.7969 39.4688 48.7656 39.7031 48.7031 40.0156C48.6406 40.2969 48.5625 40.5938 48.4688 40.9062C48.2188 41.6875 48.0156 42.6406 47.8594 43.7656C47.7344 44.8906 47.6094 46.0625 47.4844 47.2812C47.3594 48.5 47.2031 49.6875 47.0156 50.8438C46.8594 52 46.6406 53 46.3594 53.8438C46.3906 53.9375 46.4531 53.9844 46.5469 53.9844C46.6719 53.9844 46.8438 53.9062 47.0625 53.75C47.3125 53.5625 47.5625 53.3438 47.8125 53.0938C48.0625 52.8438 48.2969 52.6094 48.5156 52.3906C48.7656 52.1406 48.9688 51.9375 49.125 51.7812C49.625 51.3125 50.0938 50.8438 50.5312 50.375C51 49.875 51.4688 49.4062 51.9375 48.9688C52.4688 48.5 53 48.0938 53.5312 47.75C54.0938 47.4062 54.6094 47 55.0781 46.5312C55.8906 45.6875 56.6875 44.6719 57.4688 43.4844C58.2812 42.2969 59.125 41.2031 60 40.2031C60.4375 39.7031 60.9062 39.25 61.4062 38.8438C61.9062 38.4062 62.3594 37.9219 62.7656 37.3906C62.9219 37.2344 62.9844 37.0625 62.9531 36.875C62.9531 36.6562 63.0156 36.4844 63.1406 36.3594C63.4219 36.0156 63.75 35.6406 64.125 35.2344C64.5312 34.8281 64.9219 34.4062 65.2969 33.9688C65.7031 33.5 66.0625 33.0156 66.375 32.5156C66.6875 31.9844 66.8906 31.4062 66.9844 30.7812C66.8281 30.5938 66.6406 30.5 66.4219 30.5C66.0469 30.5 65.625 30.6719 65.1562 31.0156C64.7188 31.3594 64.2344 31.5312 63.7031 31.5312C63.4531 31.5312 63.1719 31.4062 62.8594 31.1562C62.5469 30.9062 62.3906 30.5469 62.3906 30.0781C62.3906 29.6094 62.5625 29.2656 62.9062 29.0469C63.2812 28.7969 63.7656 28.625 64.3594 28.5312C64.9531 28.4062 65.625 28.3125 66.375 28.25C67.125 28.1875 67.9062 28.0938 68.7188 27.9688C69.25 27.875 69.7031 27.7344 70.0781 27.5469C70.4844 27.3281 71 27.2188 71.625 27.2188C72 27.2188 72.375 27.2344 72.75 27.2656C73.1562 27.2656 73.5469 27.2656 73.9219 27.2656C74.6094 27.2656 75.3438 27.2188 76.125 27.125C76.9062 27 77.6094 26.9375 78.2344 26.9375C78.7969 26.9375 79.2656 27.0312 79.6406 27.2188C80.0156 27.4062 80.2344 27.7656 80.2969 28.2969C79.7656 28.5469 79.2188 28.7188 78.6562 28.8125C78.125 28.875 77.6094 28.9688 77.1094 29.0938C76.6094 29.1875 76.1562 29.3594 75.75 29.6094C75.3438 29.8281 75 30.2188 74.7188 30.7812C74.1562 31.5 73.5312 32.3125 72.8438 33.2188C72.1875 34.125 71.4062 34.9375 70.5 35.6562C70.2812 35.8125 70.0312 35.9375 69.75 36.0312C69.5 36.0938 69.2812 36.2031 69.0938 36.3594C68.9062 36.5156 68.7812 36.7344 68.7188 37.0156C68.6562 37.2969 68.5469 37.5312 68.3906 37.7188C67.9531 38.25 67.4062 38.8438 66.75 39.5C66.125 40.125 65.4375 40.7812 64.6875 41.4688C63.9688 42.1562 63.2188 42.8594 62.4375 43.5781C61.6875 44.2969 60.9844 45.0312 60.3281 45.7812C60.0469 46.0938 59.8125 46.4062 59.625 46.7188C59.4375 47.0312 59.2188 47.3125 58.9688 47.5625C58.8125 47.6875 58.625 47.75 58.4062 47.75C58.2188 47.7188 58.0469 47.7656 57.8906 47.8906C57.7969 47.9531 57.7344 48.0781 57.7031 48.2656C57.6719 48.4219 57.6094 48.5312 57.5156 48.5938C57.3906 48.6875 57.2188 48.75 57 48.7812C56.8125 48.7812 56.6406 48.8438 56.4844 48.9688C56.4844 48.9688 56.3125 49.125 55.9688 49.4375C55.6562 49.75 55.2969 50.0938 54.8906 50.4688C54.5156 50.8125 54.1562 51.1406 53.8125 51.4531C53.5 51.7344 53.3438 51.8594 53.3438 51.8281C53.3438 51.8906 53.375 52.0312 53.4375 52.25C53.5312 52.4688 53.6406 52.7188 53.7656 53C53.9219 53.25 54.0781 53.5312 54.2344 53.8438C54.4219 54.125 54.5938 54.3594 54.75 54.5469C54.8438 54.7031 55 54.875 55.2188 55.0625C55.4688 55.2188 55.7031 55.3906 55.9219 55.5781C56.1719 55.7344 56.3906 55.8906 56.5781 56.0469C56.7656 56.1719 56.8594 56.2656 56.8594 56.3281C56.8594 56.3906 56.8438 56.4844 56.8125 56.6094C56.8125 56.7031 56.8125 56.7812 56.8125 56.8438C56.8125 56.875 56.9219 57.0312 57.1406 57.3125C57.3594 57.5938 57.5938 57.9062 57.8438 58.25C58.125 58.5938 58.375 58.9219 58.5938 59.2344C58.8438 59.5156 58.9688 59.7031 58.9688 59.7969C58.9688 59.9531 59.0469 60.1094 59.2031 60.2656C59.3906 60.4219 59.5938 60.5938 59.8125 60.7812C60.0312 60.9375 60.2188 61.1094 60.375 61.2969C60.5625 61.4844 60.6562 61.6875 60.6562 61.9062C60.6562 62.1875 60.7969 62.4688 61.0781 62.75C61.3906 63.0312 61.7344 63.2969 62.1094 63.5469C62.4844 63.7969 62.8438 64.0312 63.1875 64.25C63.5312 64.4375 63.75 64.5938 63.8438 64.7188C63.9688 64.875 64.0469 65.0312 64.0781 65.1875C64.1094 65.3438 64.125 65.5 64.125 65.6562V66.1719C64.125 66.3281 64.1562 66.4375 64.2188 66.5C64.3125 66.5312 64.4219 66.5625 64.5469 66.5938C64.6719 66.625 64.7969 66.6562 64.9219 66.6875C65.0469 66.6875 65.1562 66.7188 65.25 66.7812C65.7812 67.2812 66.3906 67.9375 67.0781 68.75C67.7969 69.5312 68.5469 70.3125 69.3281 71.0938C70.1406 71.8438 70.9844 72.5 71.8594 73.0625C72.7656 73.625 73.6875 73.9062 74.625 73.9062C74.75 73.9062 74.9688 73.875 75.2812 73.8125C75.5938 73.7188 75.9062 73.6094 76.2188 73.4844C76.5625 73.3281 76.8594 73.1719 77.1094 73.0156C77.3594 72.8281 77.4844 72.625 77.4844 72.4062C77.4844 71.9688 77.5781 71.6406 77.7656 71.4219C77.9844 71.1719 78.5312 71.0469 79.4062 71.0469C79.875 71.0469 80.1719 71.1406 80.2969 71.3281Z" fill="#0195FF"/>
</g>
<defs>
<clipPath id="clip0_292_14">
<rect width="112" height="112" fill="white"/>
</clipPath>
</defs>
</svg>
